<?xml version="1.0" encoding="UTF-8"?>
<svg id="Camada_2" data-name="Camada 2" xmlns="http://www.w3.org/2000/svg" viewBox="0 0 724.02 466.57">
  <defs>
    <style>
      .cls-1 {
        fill: #fff;
      }

      .cls-2 {
        fill: none;
        stroke: #000;
        stroke-miterlimit: 10;
        stroke-width: 2.85px;
      }
    </style>
  </defs>
  <g id="conteudo">
    <rect class="cls-1" width="724.02" height="466.57"/>
    <g>
      <g>
        <path d="M171.45,176.11c.55,1.5,1.46,2.91,2.7,4.24,1.25,1.33,2.67,2.5,4.28,3.49,1.61,1,3.27,1.77,4.99,2.33,1.72.55,3.3.83,4.74.83v3.16c-3.05,0-5.68-.12-7.9-.37-2.22-.25-4.23-.51-6.03-.79-1.8-.28-3.51-.54-5.11-.79-1.61-.25-3.35-.38-5.24-.38s-3.65.12-5.28.38c-1.64.25-3.34.51-5.11.79-1.77.28-3.77.54-5.99.79-2.22.25-4.85.37-7.9.37v-3.16c1.44,0,2.73-.28,3.87-.83,1.14-.55,2.04-1.33,2.7-2.33.67-1,1.07-2.15,1.21-3.45.14-1.3-.04-2.7-.54-4.2l-9.81-28.03h-42.91l-9.81,27.94c-.56,1.5-.76,2.91-.62,4.24.14,1.33.54,2.5,1.21,3.49s1.57,1.77,2.7,2.33c1.14.55,2.42.83,3.87.83v3.16c-1.83,0-3.37-.12-4.62-.37-1.25-.25-2.37-.51-3.37-.79-1-.28-1.93-.54-2.79-.79-.86-.25-1.79-.38-2.79-.38s-1.93.12-2.79.38c-.86.25-1.8.51-2.83.79-1.03.28-2.18.54-3.45.79-1.28.25-2.8.37-4.57.37v-3.16c1.61,0,3.29-.3,5.03-.92,1.75-.61,3.41-1.43,4.99-2.45,1.58-1.03,2.97-2.19,4.16-3.49,1.19-1.3,2.04-2.65,2.54-4.03l32.93-93.89-3.24-9.07h24.78l36.01,102.96ZM95.19,145.09h40.67c-3.38-9.76-6.77-19.45-10.15-29.07-3.38-9.62-6.79-19.31-10.23-29.07l-20.29,58.13Z"/>
        <path d="M231.08,109.33v3.16h-10.98v48.74c0,1.61.01,3.48.04,5.61.03,2.13.26,4.21.71,6.24.44,2.02,1.18,3.83,2.2,5.41,1.03,1.58,2.51,2.65,4.45,3.2,1.11.28,2.13.42,3.08.42,1.5,0,2.95-.28,4.37-.83,1.41-.55,2.76-1.32,4.03-2.29,1.27-.97,2.47-2.08,3.58-3.33,1.11-1.25,2.11-2.54,2.99-3.87l3.16,2.08c-1.66,2.88-3.52,5.36-5.57,7.44-2.05,2.08-4.24,3.78-6.57,5.12-2.33,1.33-4.74,2.29-7.24,2.87-2.49.58-4.99.87-7.48.87-3.27,0-6.42-.59-9.44-1.79-3.02-1.19-5.7-2.98-8.03-5.36-2.33-2.38-4.2-5.39-5.61-9.02-1.41-3.63-2.12-7.94-2.12-12.93v-37.67c0-1.55-.31-2.99-.92-4.32-.61-1.33-1.41-2.48-2.41-3.45-1-.97-2.16-1.73-3.49-2.29-1.33-.55-2.72-.83-4.16-.83v-3.16c4.66,0,8.91-.71,12.77-2.12,3.85-1.41,7.15-3.33,9.9-5.74,2.74-2.41,4.87-5.24,6.36-8.48,1.5-3.24,2.25-6.7,2.25-10.35h3.16v26.7h10.98Z"/>
        <path d="M293.29,109.33c4.21,0,8.27.62,12.18,1.87,3.91,1.25,7.53,3.02,10.85,5.32s6.25,5.05,8.77,8.23c2.52,3.19,4.53,6.75,6.03,10.69-3.72.72-7.75,1.68-12.1,2.87-4.35,1.19-8.57,2.77-12.64,4.74-4.08,1.97-7.75,4.35-11.02,7.15-3.27,2.8-5.68,6.17-7.24,10.1-.78,1.94-1.25,4.01-1.41,6.2-.17,2.19.07,4.32.71,6.4.64,2.08,1.71,4.01,3.2,5.78,1.5,1.77,3.52,3.22,6.07,4.32,2,.89,4.16,1.33,6.49,1.33,1.77,0,3.62-.3,5.53-.92,1.91-.61,3.89-1.61,5.95-2.99l1.66,2.58c-3.44,2.33-7.1,4.1-10.98,5.32-3.88,1.22-7.9,1.83-12.06,1.83-5.54,0-10.77-1.05-15.68-3.16-4.91-2.11-9.19-4.99-12.85-8.65s-6.56-7.94-8.69-12.85c-2.13-4.91-3.2-10.16-3.2-15.76,0-3.71.48-7.29,1.46-10.73.97-3.44,2.33-6.65,4.07-9.65,1.75-2.99,3.85-5.72,6.32-8.19,2.47-2.47,5.2-4.57,8.19-6.32,2.99-1.75,6.21-3.1,9.65-4.08,3.44-.97,7.01-1.46,10.73-1.46ZM292.79,148.5c2-1.94,4.25-3.69,6.78-5.24,2.52-1.55,5.25-2.97,8.19-4.24-1.33-3.77-2.87-7.22-4.62-10.35-1.75-3.13-3.59-5.82-5.53-8.07-1.94-2.25-3.92-3.99-5.95-5.24-2.02-1.25-4.01-1.87-5.95-1.87-.72,0-1.41.08-2.08.25-2.11.55-3.81,1.72-5.11,3.49-1.3,1.78-2.27,3.9-2.91,6.36-.64,2.47-1.01,5.14-1.12,8.03-.11,2.88-.07,5.73.12,8.52.19,2.8.51,5.43.96,7.9.44,2.47.89,4.5,1.33,6.11.67,2.5,1.54,5.1,2.62,7.82,1.08,2.72,2.4,5.35,3.95,7.9-.22-4.33.5-8.25,2.16-11.77,1.66-3.52,4.05-6.72,7.15-9.61Z"/>
        <path d="M335.45,190.17v-3.16c1.44,0,2.83-.28,4.16-.83,1.33-.55,2.5-1.32,3.49-2.29,1-.97,1.8-2.12,2.41-3.45.61-1.33.92-2.77.92-4.32v-83.17c0-1.61-.28-3.08-.83-4.41-.56-1.33-1.3-2.45-2.25-3.37-.94-.92-2.07-1.59-3.37-2.04-1.3-.44-2.68-.58-4.12-.42l-.42-3.08c2.72-.61,5.56-1.08,8.52-1.41,2.97-.33,5.93-.68,8.9-1.04,2.97-.36,5.9-.83,8.82-1.41,2.91-.58,5.64-1.46,8.19-2.62v102.96c0,1.55.3,2.99.91,4.32.61,1.33,1.41,2.48,2.41,3.45,1,.97,2.16,1.73,3.49,2.29,1.33.55,2.72.83,4.16.83v3.16c-2.72,0-5-.12-6.86-.37-1.86-.25-3.58-.51-5.16-.79s-3.19-.54-4.82-.79c-1.64-.25-3.59-.38-5.86-.38s-4.23.12-5.86.38c-1.64.25-3.24.51-4.82.79s-3.29.54-5.11.79c-1.83.25-4.13.37-6.9.37Z"/>
        <path d="M385.19,190.17v-3.16c1.44,0,2.83-.28,4.16-.83,1.33-.55,2.5-1.32,3.49-2.29,1-.97,1.8-2.12,2.41-3.45.61-1.33.92-2.77.92-4.32v-46.99c0-1.61-.28-3.06-.83-4.37-.56-1.3-1.32-2.41-2.29-3.33-.97-.92-2.09-1.59-3.37-2.04-1.28-.44-2.63-.61-4.08-.5l-.42-3.08c2.72-.61,5.56-1.07,8.52-1.37,2.97-.3,5.93-.65,8.9-1.04,2.97-.39,5.89-.87,8.77-1.46,2.88-.58,5.6-1.43,8.15-2.54v66.7c0,1.55.3,2.99.91,4.32.61,1.33,1.43,2.48,2.45,3.45,1.02.97,2.2,1.73,3.53,2.29,1.33.55,2.72.83,4.16.83v3.16c-2.77,0-5.09-.12-6.94-.37-1.86-.25-3.58-.51-5.16-.79-1.58-.28-3.17-.54-4.78-.79-1.61-.25-3.55-.38-5.82-.38s-4.23.12-5.86.38c-1.64.25-3.24.51-4.82.79s-3.29.54-5.11.79c-1.83.25-4.13.37-6.9.37ZM407.89,79.22c1.61,0,3.12.3,4.53.92,1.41.61,2.65,1.44,3.7,2.49,1.05,1.05,1.88,2.3,2.5,3.74.61,1.44.92,2.97.92,4.57s-.31,3.12-.92,4.53c-.61,1.41-1.44,2.65-2.5,3.7-1.05,1.05-2.29,1.89-3.7,2.5-1.41.61-2.93.92-4.53.92s-3.13-.3-4.57-.92c-1.44-.61-2.69-1.44-3.74-2.5-1.05-1.05-1.89-2.29-2.5-3.7-.61-1.41-.91-2.92-.91-4.53s.3-3.13.91-4.57c.61-1.44,1.44-2.69,2.5-3.74,1.05-1.05,2.3-1.88,3.74-2.49,1.44-.61,2.97-.92,4.57-.92Z"/>
        <path d="M475.17,109.33c4.21,0,8.27.62,12.18,1.87,3.91,1.25,7.53,3.02,10.85,5.32s6.25,5.05,8.77,8.23c2.52,3.19,4.53,6.75,6.03,10.69-3.72.72-7.75,1.68-12.1,2.87-4.35,1.19-8.57,2.77-12.64,4.74-4.08,1.97-7.75,4.35-11.02,7.15-3.27,2.8-5.68,6.17-7.24,10.1-.78,1.94-1.25,4.01-1.41,6.2-.17,2.19.07,4.32.71,6.4.64,2.08,1.71,4.01,3.2,5.78,1.5,1.77,3.52,3.22,6.07,4.32,2,.89,4.16,1.33,6.49,1.33,1.77,0,3.62-.3,5.53-.92,1.91-.61,3.89-1.61,5.95-2.99l1.66,2.58c-3.44,2.33-7.1,4.1-10.98,5.32-3.88,1.22-7.9,1.83-12.06,1.83-5.54,0-10.77-1.05-15.68-3.16-4.91-2.11-9.19-4.99-12.85-8.65s-6.56-7.94-8.69-12.85c-2.13-4.91-3.2-10.16-3.2-15.76,0-3.71.48-7.29,1.46-10.73.97-3.44,2.33-6.65,4.07-9.65,1.75-2.99,3.85-5.72,6.32-8.19,2.47-2.47,5.2-4.57,8.19-6.32,2.99-1.75,6.21-3.1,9.65-4.08,3.44-.97,7.01-1.46,10.73-1.46ZM474.67,148.5c2-1.94,4.25-3.69,6.78-5.24,2.52-1.55,5.25-2.97,8.19-4.24-1.33-3.77-2.87-7.22-4.62-10.35-1.75-3.13-3.59-5.82-5.53-8.07-1.94-2.25-3.92-3.99-5.95-5.24-2.02-1.25-4.01-1.87-5.95-1.87-.72,0-1.41.08-2.08.25-2.11.55-3.81,1.72-5.11,3.49-1.3,1.78-2.27,3.9-2.91,6.36-.64,2.47-1.01,5.14-1.12,8.03-.11,2.88-.07,5.73.12,8.52.19,2.8.51,5.43.96,7.9.44,2.47.89,4.5,1.33,6.11.67,2.5,1.54,5.1,2.62,7.82,1.08,2.72,2.4,5.35,3.95,7.9-.22-4.33.5-8.25,2.16-11.77,1.66-3.52,4.05-6.72,7.15-9.61Z"/>
      </g>
      <g>
        <path d="M196.6,244.34c0,.5.1.97.29,1.4.2.43.46.8.79,1.11.33.31.71.56,1.14.74.43.18.88.27,1.34.27v1.02c-.9,0-1.64-.04-2.24-.12-.6-.08-1.15-.17-1.66-.25-.51-.09-1.02-.17-1.54-.25-.52-.08-1.15-.12-1.88-.12-.82,0-1.54.09-2.16.27-.62.18-1.16.34-1.62.48v-2.04c-.89.68-1.85,1.19-2.87,1.53-1.02.34-2.09.51-3.22.51-1.27,0-2.44-.18-3.5-.54-1.06-.36-2.03-.86-2.88-1.5-.86-.64-1.61-1.4-2.25-2.28-.64-.88-1.18-1.83-1.6-2.86-.42-1.03-.73-2.11-.94-3.25-.21-1.14-.3-2.29-.28-3.45.04-1.63.3-3.18.79-4.66.49-1.48,1.21-2.77,2.15-3.89.94-1.12,2.1-2.01,3.49-2.67s2.98-.99,4.79-.99c1.47,0,2.7.29,3.69.87.99.58,1.87,1.51,2.64,2.78v-8.94c0-.52-.09-.99-.27-1.42-.18-.43-.42-.79-.72-1.09-.3-.29-.67-.51-1.09-.66-.42-.14-.86-.19-1.33-.13l-.13-.99c.88-.2,1.79-.35,2.75-.46.96-.11,1.91-.22,2.87-.33.96-.12,1.91-.27,2.84-.46.94-.19,1.82-.47,2.64-.85-.02,5.58-.03,11.12-.03,16.63v16.6ZM189.05,228.7c-.18-.5-.42-1.03-.74-1.58-.31-.55-.68-1.06-1.1-1.52s-.89-.83-1.41-1.13c-.52-.29-1.08-.44-1.69-.44-.73,0-1.37.21-1.92.62-.55.41-1.02.94-1.41,1.6-.39.65-.72,1.39-.97,2.21s-.45,1.65-.59,2.48c-.14.83-.24,1.62-.29,2.38-.05.75-.08,1.39-.08,1.91,0,1.34.1,2.66.29,3.95s.49,2.46.89,3.53.88,1.96,1.46,2.7c.58.73,1.26,1.21,2.03,1.42.52.14,1.06.21,1.61.21.59,0,1.22-.1,1.89-.31s1.35-.58,2.03-1.11v-16.91Z"/>
        <path d="M214.55,222.79c1.2,0,2.36.16,3.48.47,1.12.31,2.16.75,3.13,1.32.97.56,1.85,1.24,2.64,2.04.8.8,1.48,1.68,2.04,2.64.56.97,1,2,1.32,3.11.31,1.11.47,2.26.47,3.46,0,1.81-.34,3.5-1.03,5.09-.69,1.58-1.62,2.96-2.8,4.15-1.18,1.18-2.56,2.11-4.15,2.79s-3.28,1.02-5.09,1.02-3.48-.34-5.06-1.02c-1.58-.68-2.97-1.61-4.15-2.79-1.18-1.18-2.12-2.56-2.8-4.15-.69-1.58-1.03-3.28-1.03-5.09,0-1.2.16-2.35.47-3.46.31-1.11.75-2.15,1.31-3.11.56-.97,1.24-1.85,2.04-2.64.8-.8,1.68-1.48,2.64-2.04s2-1,3.11-1.32c1.11-.31,2.26-.47,3.46-.47ZM217.66,247.48c.73-.2,1.34-.69,1.83-1.48.48-.79.82-1.77,1.02-2.95.2-1.18.25-2.51.15-4-.1-1.49-.36-3.03-.79-4.64-.39-1.49-.89-2.85-1.48-4.11-.59-1.25-1.23-2.33-1.93-3.25-.7-.91-1.42-1.63-2.17-2.15-.75-.52-1.48-.78-2.17-.78-.23,0-.46.03-.67.08-.73.2-1.34.68-1.82,1.46-.48.78-.82,1.76-1.02,2.94-.2,1.18-.24,2.51-.13,4,.11,1.49.38,3.03.81,4.64.39,1.49.89,2.86,1.48,4.12s1.23,2.35,1.93,3.26,1.42,1.63,2.16,2.15c.74.52,1.46.78,2.16.78.23,0,.46-.03.67-.08Z"/>
      </g>
      <g>
        <path d="M244.56,278.66c3.2-2,6.09-4.56,8.68-7.69,2.59-3.13,4.86-6.55,6.8-10.29-.43,3.08-.53,6.01-.31,8.78.22,2.78.7,5.38,1.44,7.8.78,2.6,1.84,4.84,3.19,6.73,1.34,1.88,2.86,3.44,4.55,4.68,1.69,1.23,3.49,2.15,5.42,2.76,1.92.61,3.86.91,5.81.9,2.03,0,4-.29,5.9-.85,1.9-.57,3.61-1.4,5.12-2.51,1.51-1.11,2.75-2.45,3.72-4.04s1.54-3.4,1.71-5.43c.13-1.86-.25-3.78-1.14-5.76-.89-1.97-2.48-3.95-4.78-5.95-2.25-1.99-4.88-3.9-7.89-5.71-3.01-1.82-6.11-3.66-9.31-5.52-3.2-1.86-6.37-3.79-9.51-5.78-3.14-1.99-5.96-4.15-8.47-6.46-2.51-2.32-4.6-4.84-6.27-7.57-1.67-2.73-2.63-5.74-2.9-9.04-.31-3.73.39-7.09,2.1-10.08,1.7-2.99,4.06-5.56,7.06-7.68,3-2.13,6.5-3.77,10.5-4.92,4-1.15,8.14-1.74,12.42-1.74,3.5,0,6.73.35,9.7,1.06,2.96.71,5.74,1.75,8.34,3.11,2.6,1.36,5.06,3.05,7.4,5.06,2.34,2.01,4.61,4.32,6.82,6.92-3.2,2.04-6.09,4.63-8.68,7.75-2.59,3.12-4.86,6.53-6.8,10.22.3-2.13.48-4.38.54-6.77.06-2.38-.05-4.75-.33-7.09-.28-2.34-.8-4.6-1.53-6.76-.74-2.17-1.78-4.06-3.12-5.69-1.34-1.62-3.01-2.92-5-3.9s-4.39-1.46-7.2-1.45c-3.46,0-6.32.85-8.59,2.55-2.27,1.69-3.8,3.82-4.6,6.38-.8,2.56-.78,5.35.04,8.36.83,3.01,2.56,5.86,5.2,8.55,2.17,2.12,4.7,4.14,7.6,6.04,2.9,1.9,5.91,3.76,9.02,5.58s6.22,3.66,9.31,5.52c3.09,1.86,5.9,3.85,8.41,5.97,1.9,1.56,3.43,3.14,4.58,4.74,1.15,1.6,2.03,3.17,2.63,4.71.61,1.54,1.01,3.04,1.21,4.52.2,1.47.27,2.91.23,4.29-.04,2.25-.6,4.45-1.68,6.57-1.29,2.6-3.1,4.87-5.41,6.8-2.31,1.93-4.9,3.52-7.78,4.76-2.87,1.24-5.94,2.17-9.21,2.78-3.27.61-6.52.92-9.76.92-3.59,0-7.11-.37-10.57-1.12-3.46-.75-6.72-1.82-9.77-3.21-3.05-1.38-5.84-3.07-8.37-5.06-2.53-1.99-4.69-4.24-6.46-6.76Z"/>
        <path d="M353.53,231.49c2.9,0,5.7.37,8.4,1.13,2.7.76,5.22,1.82,7.56,3.18,2.34,1.36,4.47,3.01,6.4,4.94,1.93,1.93,3.57,4.06,4.94,6.4,1.37,2.34,2.43,4.85,3.19,7.54.76,2.69,1.14,5.49,1.15,8.39,0,4.38-.82,8.49-2.48,12.33-1.66,3.84-3.92,7.19-6.77,10.06-2.85,2.87-6.19,5.13-10.01,6.78-3.82,1.65-7.92,2.48-12.29,2.49-4.32,0-8.4-.81-12.23-2.46-3.83-1.64-7.17-3.89-10.03-6.75-2.86-2.86-5.12-6.21-6.79-10.04-1.67-3.84-2.51-7.94-2.51-12.32,0-2.9.37-5.7,1.12-8.39.75-2.69,1.81-5.21,3.17-7.55s3-4.48,4.92-6.41c1.92-1.93,4.05-3.58,6.38-4.95,2.33-1.37,4.84-2.43,7.52-3.2,2.68-.76,5.47-1.14,8.37-1.15ZM361.13,291.32c1.77-.48,3.24-1.67,4.41-3.58,1.17-1.91,1.98-4.3,2.46-7.16.47-2.86.59-6.09.34-9.69-.24-3.6-.89-7.35-1.93-11.25-.96-3.6-2.15-6.91-3.58-9.95-1.43-3.03-2.99-5.66-4.68-7.87-1.69-2.21-3.44-3.94-5.26-5.2-1.82-1.25-3.57-1.88-5.26-1.88-.56,0-1.1.07-1.62.2-1.77.48-3.24,1.66-4.41,3.55s-1.98,4.26-2.46,7.13c-.47,2.86-.58,6.09-.31,9.69.26,3.6.92,7.35,1.96,11.25.96,3.6,2.15,6.92,3.58,9.98,1.43,3.06,2.99,5.69,4.68,7.9,1.69,2.21,3.43,3.94,5.23,5.2,1.79,1.26,3.54,1.88,5.22,1.88.56,0,1.1-.07,1.62-.2Z"/>
        <path d="M388.51,294.67v-2.47c1.12,0,2.2-.22,3.24-.65,1.04-.43,1.94-1.03,2.72-1.79s1.4-1.66,1.88-2.7c.47-1.04.71-2.17.71-3.38l-.05-36.75c0-1.26-.22-2.41-.65-3.45-.43-1.04-1.02-1.92-1.75-2.63-.74-.71-1.61-1.24-2.63-1.59-1.02-.35-2.09-.47-3.21-.39l-.33-2.41c2.12-.48,4.33-.84,6.65-1.08,2.31-.24,4.63-.5,6.94-.79,2.31-.28,4.59-.66,6.84-1.11,2.25-.46,4.37-1.14,6.35-2.06l.02,12.75c1.29-2.3,2.75-4.25,4.37-5.86,1.62-1.61,3.34-2.93,5.15-3.97,1.81-1.04,3.68-1.79,5.61-2.25,1.92-.46,3.86-.69,5.8-.69,2.03,0,4.02.3,5.97.9,1.95.61,3.75,1.5,5.42,2.69,1.67,1.19,3.13,2.7,4.38,4.51,1.26,1.82,2.21,3.96,2.86,6.44,1.16-2.17,2.46-4.14,3.88-5.92,1.42-1.78,3.02-3.32,4.79-4.62,1.77-1.3,3.75-2.3,5.93-3,2.18-.7,4.61-1.05,7.3-1.05,2.55,0,5.02.46,7.4,1.39,2.38.93,4.48,2.33,6.3,4.19,1.82,1.86,3.27,4.21,4.36,7.05,1.08,2.84,1.63,6.21,1.63,10.11l.04,29.47c0,1.21.24,2.34.72,3.38.48,1.04,1.12,1.94,1.92,2.7.8.76,1.72,1.35,2.76,1.79s2.12.65,3.24.65v2.47c-2.16,0-3.96-.09-5.41-.29-1.45-.19-2.79-.4-4.02-.61-1.23-.21-2.48-.42-3.73-.61-1.25-.19-2.77-.29-4.54-.29-1.77,0-3.3.1-4.57.3-1.28.2-2.53.4-3.76.62-1.23.22-2.57.43-4.02.62-1.45.2-3.25.3-5.42.3v-2.47c1.16,0,2.27-.22,3.3-.65,1.04-.44,1.94-1.03,2.72-1.79s1.4-1.66,1.88-2.7c.47-1.04.71-2.17.71-3.38l-.04-29.6c0-1.26-.01-2.72-.04-4.39-.02-1.67-.21-3.29-.56-4.88-.35-1.58-.92-2.99-1.72-4.23-.8-1.24-1.98-2.07-3.54-2.5-.43-.09-.84-.16-1.23-.23-.39-.06-.78-.1-1.17-.1-1.6,0-3.14.41-4.6,1.21-1.47.81-2.82,1.84-4.05,3.09-1.23,1.26-2.32,2.65-3.27,4.17-.95,1.52-1.73,2.97-2.33,4.36.13,1.17.2,2.39.2,3.64l.04,29.47c0,1.21.24,2.34.72,3.38.48,1.04,1.1,1.94,1.88,2.7s1.69,1.35,2.73,1.79c1.04.43,2.12.65,3.24.65v2.47c-2.12,0-3.9-.09-5.35-.29-1.45-.19-2.79-.4-4.02-.61-1.23-.21-2.49-.42-3.76-.61-1.28-.19-2.8-.29-4.57-.29-1.77,0-3.3.1-4.57.3-1.28.2-2.53.4-3.76.62-1.23.22-2.56.43-3.99.62-1.43.2-3.22.3-5.38.3v-2.47c1.12,0,2.2-.22,3.24-.65,1.04-.43,1.94-1.03,2.72-1.79.78-.76,1.4-1.66,1.88-2.7.47-1.04.71-2.17.71-3.38l-.04-29.6c0-1.26-.01-2.72-.04-4.39-.02-1.67-.21-3.29-.56-4.88-.35-1.58-.91-2.99-1.69-4.23-.78-1.24-1.95-2.07-3.51-2.5-.87-.22-1.67-.32-2.4-.32-1.6,0-3.14.41-4.6,1.21-1.47.81-2.81,1.83-4.02,3.06-1.21,1.24-2.28,2.58-3.21,4.04-.93,1.46-1.69,2.85-2.3,4.2l.04,33.44c0,1.21.24,2.34.72,3.38.48,1.04,1.12,1.94,1.92,2.7.8.76,1.72,1.35,2.76,1.79,1.04.43,2.12.65,3.24.65v2.47c-2.16,0-3.96-.09-5.41-.29-1.45-.19-2.79-.4-4.02-.61-1.23-.21-2.48-.42-3.73-.61-1.25-.19-2.77-.29-4.54-.29-1.77,0-3.3.1-4.57.3-1.28.2-2.53.41-3.76.62-1.23.22-2.56.43-3.99.62-1.43.2-3.22.3-5.38.3Z"/>
      </g>
      <path d="M478.78,75.78l22.17,20.59h-16.88l-7.43-15.98-7.31,15.98h-16.88l22.17-20.59h4.16Z"/>
      <g>
        <path class="cls-2" d="M496.89,181.72c1.49-5.08,4.67-13.5,11.66-21.87,1.31-1.57,7.89-9.29,19.32-15.31,6.24-3.29,28.02-13.5,53.57-5.47,6.09,1.91,28.68,9.02,37.17,29.88,1.04,2.56,6.35,15.61,2.19,29.52-2.79,9.32-8.26,13.75-9.84,25.51-.31,2.34-.96,7.73.36,14.21,1.97,9.65,6.94,15.04,13.48,23.69,7.31,9.65,14.27,18.85,18.95,29.16,2.55,5.61,8.26,18.61,6.92,35.72-1.52,19.47-11.29,32.97-16.04,38.63-9.4,11.22-19.83,16.39-25.88,19.32-24.52,11.86-47.81,8.91-59.41,7.29-9.47-1.32-20.64-3-33.17-10.2-6.63-3.81-19.51-11.23-26.97-26.97-2.3-4.85-8.6-18.17-4.01-34.26,4.62-16.2,17.16-24.23,20.41-26.24,12.56-7.77,24.93-7.26,30.98-6.92,4.18.23,25.91,1.88,40.82,19.32,3.29,3.85,11.79,13.78,10.93,26.97-.2,3.06-.65,10.07-5.83,14.58-8.98,7.81-24.08,1.03-25.51.36-10.29-4.79-17.56-15.28-18.59-26.24-.82-8.78,2.64-14.9,9.48-26.97,4.66-8.24,11.3-19.95,22.96-26.24,1.78-.96,4.3-2.13,7.29-4.74,2.4-2.1,8.15-7.12,9.48-15.31,1.71-10.53-5.14-18.49-6.2-19.68-.8-.9-9.13-9.95-21.87-8.38-1.22.15-12.79,1.78-18.59,12.39-4.82,8.82-3.19,19.37,2.19,26.6,6.76,9.1,17.28,10.08,18.95,10.2"/>
        <line class="cls-2" x1="554.74" y1="71.7" x2="555.06" y2="322.39"/>
        <line class="cls-2" x1="574.54" y1="72.53" x2="574.54" y2="267.15"/>
        <path class="cls-2" d="M528.61,354.42c1.74,2.53,12.49,17.64,32.07,20.04,17.5,2.15,35.16-6.7,45.19-22.6"/>
      </g>
    </g>
  </g>
</svg>